<svg height="200" width="850" xmlns="http://www.w3.org/2000/svg"><g fill="#fff"><path d="m330.91 60.6301c0-4.86-1.17-8.68-3.5-11.44s-5.32-4.14-8.97-4.14c-4.05 0-7.4 1.58-10.03 4.75s-3.95 7.56-3.95 13.18v39.6699h-20.97v-42.0199c0-4.86-1.18-8.68-3.53-11.44-2.36-2.76-5.33-4.14-8.93-4.14-4.05 0-7.41 1.58-10.07 4.75s-3.99 7.56-3.99 13.18v39.6699h-20.97v-76.2899h20.97v9.35c.51-.81 1.29-1.81 2.36-3 1.06-1.19 3.33-2.8 6.8-4.82 3.47-2.03 7.18-3.04 11.13-3.04 2.99 0 5.8.47 8.43 1.41s4.74 2.03 6.31 3.27 2.93 2.51 4.07 3.8 1.91 2.42 2.32 3.38l.61 1.37c.2-.3.54-.77 1.03-1.41.48-.63 1.52-1.7 3.12-3.19s3.31-2.84 5.13-4.03 4.22-2.25 7.18-3.19 6.04-1.41 9.23-1.41c8.41 0 15.06 2.82 19.95 8.47s7.33 13.97 7.33 24.96v44.3799h-21.05v-42.0199z"/><path d="m378.37 71.5001c.81 4.15 3.01 7.66 6.61 10.52s8.13 4.29 13.6 4.29c3.95 0 7.61-.77 10.98-2.32s5.74-3.1 7.1-4.67l2.2-2.36 10.87 13.98-1.41 1.41c-.63.63-1.99 1.71-4.07 3.23s-4.28 2.87-6.61 4.07c-2.33 1.1899-5.36 2.2399-9.08 3.1499s-7.56 1.37-11.51 1.37c-11.2 0-20.74-3.89-28.65-11.6599-7.9-7.78-11.85-17.11-11.85-28s3.9-20.22 11.7-28 17.15-11.66 28.04-11.66 19.96 3.63 27.2 10.9 10.87 16.35 10.87 27.24l-.76 8.51h-55.24zm6.57-24.85c-3.12 2.58-5.31 5.95-6.57 10.11h35.03c-.81-4.05-2.75-7.4-5.81-10.03-3.07-2.63-6.83-3.95-11.28-3.95s-8.24 1.29-11.36 3.88z"/><path d="m448.4 3.87012h18.69v24.08998h15.5v18.69h-15.5v30.32c0 2.38.87 4.41 2.62 6.08s3.96 2.51 6.65 2.51c1.37 0 2.7-.14 3.99-.42s2.27-.57 2.93-.87l.91-.3v17.9299c-4.15 1.57-8.84 2.33-14.06 2.28-16.06 0-24.09-8.8099-24.09-26.4399v-31.08h-13.22v-18.69h6.99c2.38 0 4.41-.94 6.08-2.81s2.51-4.31 2.51-7.29z"/><path d="m537.05 46.6501c-1.57-.51-3.9-.79-6.99-.84-5.52 0-9.89 1.75-13.11 5.24-3.22 3.5-4.83 8.51-4.83 15.05v36.5499h-20.97v-76.2899h20.97v9.35c.61-.71 1.47-1.63 2.58-2.77s3.56-2.65 7.33-4.52 7.74-2.81 11.89-2.81h3.12v21.05z"/><path d="m601.96 92.2801c-8.03 7.9299-17.49 11.8899-28.38 11.8899s-20.36-3.96-28.42-11.8899c-8.05-7.93-12.08-17.19-12.08-27.77s4.03-19.85 12.08-27.77c8.05-7.93 17.53-11.89 28.42-11.89s20.35 3.96 28.38 11.89 12.04 17.19 12.04 27.77-4.01 19.84-12.04 27.77zm-41.53-13.37c3.7 3.88 8.08 5.81 13.15 5.81s9.45-1.94 13.15-5.81c3.7-3.88 5.55-8.66 5.55-14.36s-1.85-10.5-5.55-14.4-8.08-5.85-13.15-5.85-9.45 1.95-13.15 5.85-5.55 8.7-5.55 14.4 1.85 10.49 5.55 14.36z"/></g><path d="m317.67 123.86v19.96h-48.89v9.18h37.27v19.91h-37.27v22.5h-32.78v-71.55z" fill="#e37501"/><path d="m323.64 195.41v-71.55h32.78v50.59h43.12v20.96z" fill="#e37501"/><path d="m488.53 176.5v18.91h-82.46v-71.55h80.96v18.91h-48.18v7.68h36.49v17.36h-36.49v8.68h49.67z" fill="#e37501"/><path d="m553.27 144.23c-8.97-9.93-13.49-20.28-13.49-20.28h-46.28c14.22 30.71 36.19 36.08 36.19 36.08s-.03 0-.07.01c-1.3.35-22.34 6.31-36.12 36.07h46.28s4.52-10.35 13.49-20.28c5.73-6.38 13.31-12.59 22.68-15.79 0 0 .01-.01.03-.01-9.39-3.21-16.96-9.42-22.7-15.8z" fill="#e37501"/><path d="m613.88 196.13h-46.28s-3.56-8.15-10.64-16.95c5.58-6.93 13.34-14.26 23.27-18.29 6.18 2.44 22.34 10.85 33.65 35.24z" fill="#c16101"/><path d="m613.88 123.94c-11.29 24.38-27.46 32.8-33.64 35.24-9.93-4.02-17.69-11.35-23.26-18.29 7.07-8.79 10.63-16.95 10.63-16.95h46.28z" fill="#c16101"/></svg>