<svg width="850" height="168" viewBox="0 0 850 168" fill="none" xmlns="http://www.w3.org/2000/svg">
<g clip-path="url(#clip0_93_271)">
<path d="M371.708 80.9212H389.636V21.4713H400.271V1.2041H361.221V21.4713H371.708V80.9212Z" fill="white"/>
<path d="M406.885 1.2041V48.5436C406.885 57.3366 407.032 63.0396 407.338 65.6526C407.644 68.4245 408.55 70.8898 410.067 73.3664C411.585 75.8316 414.02 77.8425 417.055 79.3761C420.249 80.9212 423.896 81.6937 427.996 81.6937C431.642 81.6937 434.983 81.0802 437.724 79.6942C440.454 78.4559 442.741 76.4565 444.406 73.9912C446.082 71.526 447.135 69.0607 447.441 66.7432C447.747 64.4256 447.894 60.2677 447.894 54.4056V1.2041H429.966V59.7905C429.966 63.6417 429.819 66.107 429.513 67.1862C429.207 68.2655 428.449 68.7313 427.384 68.7313C426.319 68.7313 425.708 68.2655 425.413 67.3453C425.108 66.4251 424.96 64.2666 424.96 60.8698V1.2041H406.874H406.885Z" fill="white"/>
<path d="M485.676 65.6753H472.459V47.2371H483.694V32.6047H472.459V16.5977H484.453V1.2041H454.52V80.9212H485.676V65.6753Z" fill="white"/>
<path d="M494.951 38.4896C496.458 40.0005 499.334 42.4317 503.717 45.7603C508.1 49.089 510.965 51.3725 512.03 52.8834C513.083 54.2467 513.695 57.28 513.695 61.9719C513.695 64.0963 513.389 65.6072 512.789 66.6751C512.189 67.7317 511.283 68.3451 510.071 68.3451C508.859 68.3451 508.111 67.8907 507.658 67.1296C507.205 66.2207 506.9 64.403 506.9 61.5175V51.9746H490.285V57.1323C490.285 63.0398 490.738 67.584 491.792 70.7763C492.845 73.9573 495.121 76.5361 498.44 78.6605C501.758 80.785 505.846 81.6938 510.682 81.6938C515.065 81.6938 518.837 80.785 522.166 78.9673C525.485 77.1496 527.602 75.0252 528.814 72.2986C530.026 69.7198 530.479 65.63 530.479 60.0179C530.479 52.2927 529.426 46.8282 527.455 43.3519C525.337 39.8642 520.354 35.4677 512.494 30.1623C509.776 28.3446 508.111 26.6746 507.511 25.3113C506.911 23.9481 506.605 21.9827 506.605 19.4038C506.605 17.4385 506.911 15.9161 507.364 14.8596C507.964 13.8031 508.723 13.3487 509.776 13.3487C510.83 13.3487 511.441 13.6554 511.894 14.4052C512.347 15.155 512.494 16.825 512.494 19.5629V25.3227H529.109V22.2894C529.109 16.0752 528.656 11.6787 527.444 9.09981C526.391 6.52096 524.273 4.39654 520.943 2.57885C517.625 0.908845 513.695 0 509.153 0C504.929 0 501.294 0.761158 498.281 2.27211C495.257 3.78307 493.139 6.06654 491.78 8.79308C490.421 11.5196 489.821 15.9161 489.821 21.9827C489.821 26.0725 490.274 29.5602 491.18 32.2867C492.086 35.0133 493.445 36.99 494.951 38.5009V38.4896Z" fill="white"/>
<path d="M473.308 87.8398C471.032 99.5753 469.05 111.163 468.144 119.081C467.838 114.049 466.015 102.472 463.433 87.8398H446.875L459.944 137.531V166.341H476.502V137.531L490.025 87.8398H473.308Z" fill="white"/>
<path d="M398.006 93.5543C396.488 91.5775 394.053 90.2029 391.018 89.2827C387.983 88.3625 382.048 87.9081 373.396 87.9081H360.021V166.557H382.66C386.918 166.557 390.101 166.251 392.23 165.796C394.359 165.342 396.183 164.421 397.553 163.058C399.071 161.843 399.988 160.014 400.588 157.719C401.2 155.435 401.494 150.857 401.494 144.154V114.583C401.494 107.414 401.347 102.7 400.883 100.257C400.577 97.8145 399.512 95.531 397.995 93.5543M383.555 142.632C383.555 147.665 383.249 150.709 382.649 151.925C382.037 152.993 381.108 153.447 378.526 153.447V100.711C380.497 100.711 381.278 101.018 381.89 101.473C382.649 101.927 383.102 102.688 383.26 103.608C383.408 104.517 383.566 106.812 383.566 110.163V142.632H383.555Z" fill="white"/>
<path d="M414.258 87.8398L404.224 166.489H422.763L423.975 151.402H430.351L431.416 166.489H449.797L439.162 87.8398H414.247H414.258ZM423.828 137.985C424.281 131.283 425.504 119.081 427.327 104.608C428.233 117.264 429.151 129.454 430.057 137.985H423.828Z" fill="white"/>
<path d="M495.495 124.807C497.001 126.318 499.878 128.749 504.261 132.078C508.644 135.406 511.509 137.69 512.574 139.201C513.627 140.564 514.238 143.597 514.238 148.289C514.238 150.414 513.933 151.925 513.332 152.993C512.732 154.049 511.826 154.663 510.614 154.663C509.402 154.663 508.655 154.208 508.202 153.447C507.749 152.538 507.443 150.721 507.443 147.835V138.292H490.829V143.45C490.829 149.357 491.282 153.901 492.335 157.094C493.388 160.275 495.653 162.854 498.983 164.978C502.313 167.102 506.39 168.011 511.226 168.011C515.609 168.011 519.38 167.102 522.71 165.285C526.028 163.467 528.146 161.343 529.358 158.616C530.57 156.037 531.023 151.947 531.023 146.335C531.023 138.61 529.969 133.146 527.999 129.669C525.881 126.182 520.898 121.785 513.038 116.48C510.32 114.662 508.655 112.992 508.055 111.629C507.455 110.266 507.149 108.3 507.149 105.721C507.149 103.756 507.455 102.234 507.908 101.177C508.508 100.121 509.267 99.6662 510.32 99.6662C511.373 99.6662 511.985 99.9729 512.438 100.723C512.891 101.484 513.038 103.142 513.038 105.88V111.64H529.652V108.607C529.652 102.393 529.199 97.9962 527.987 95.4173C526.934 92.8385 524.816 90.714 521.487 88.8963C518.168 87.2263 514.238 86.3175 509.697 86.3175C505.473 86.3175 501.837 87.0787 498.825 88.5896C495.801 90.1006 493.683 92.3727 492.324 95.1106C490.965 97.8371 490.365 102.234 490.365 108.3C490.365 112.39 490.818 115.878 491.724 118.604C492.63 121.331 493.989 123.307 495.495 124.818" fill="white"/>
<path d="M319.759 102.62H349.137V108.573H332.556V108.834L345.49 116.071V117.968L332.556 125.159V125.421H349.137V131.373H319.759V125.909L336.033 117.139V116.877L319.759 108.141V102.631V102.62Z" fill="white"/>
<path d="M341.005 51.0769C345.49 51.0769 349.137 53.7694 349.137 60.1654V71.1397H319.759V59.9381C319.759 53.8943 323.326 51.3382 327.539 51.3382C330.575 51.3382 332.953 52.7015 334.267 54.9509H334.448C335.592 52.4856 337.925 51.0656 341.005 51.0656V51.0769ZM324.991 65.1867H331.809V60.7334C331.809 58.7453 330.405 57.5184 328.377 57.5184C326.35 57.5184 324.991 58.8021 324.991 60.7334V65.1867ZM340.337 57.2457C338.185 57.2457 336.86 58.5294 336.86 60.8584V65.1754H343.893V60.8584C343.893 58.5181 342.568 57.2457 340.326 57.2457H340.337Z" fill="white"/>
<path d="M319.759 47.7256V41.7727H349.137V47.7256H319.759Z" fill="white"/>
<path d="M319.759 37.3193V31.3663H343.644V20.8237H349.137V37.3193H319.759Z" fill="white"/>
<path d="M325.252 12.576H331.458V1.64716H336.951V12.5874H343.633V1.2041H349.126V18.529H319.759V1.2041H325.252V12.576Z" fill="white"/>
<path d="M319.759 166.557V145.529H325.252V153.072H349.137V159.025H325.252V166.568H319.759V166.557Z" fill="white"/>
<path d="M335.195 136.224H340.031V148.221H335.195V136.224Z" fill="white"/>
<path d="M334.391 99.3594C324.889 99.3594 319 94.9515 319 86.8855C319 78.8195 324.889 74.4116 334.391 74.4116C343.893 74.4116 349.782 78.8195 349.782 86.8855C349.782 94.9515 343.893 99.3594 334.391 99.3594ZM334.391 80.5804C327.97 80.5804 324.719 82.7844 324.719 86.8855C324.719 90.9867 327.97 93.1906 334.391 93.1906C340.813 93.1906 344.063 90.9867 344.063 86.8855C344.063 82.7844 340.813 80.5804 334.391 80.5804Z" fill="white"/>
</g>
<defs>
<clipPath id="clip0_93_271">
<rect width="212" height="168" fill="white" transform="translate(319)"/>
</clipPath>
</defs>
</svg>
